<svg xmlns="http://www.w3.org/2000/svg" viewBox="0 0 130 63.56">
  <defs>
    <style>
      .cls-1 {
        fill: #006da0;
      }

      .cls-2 {
        fill: #00709b;
      }

      .cls-3 {
        fill: #00938c;
      }
    </style>
  </defs>
  <title>epstein-hillel-logo-color</title>
  <g id="Layer_2" data-name="Layer 2">
    <g id="Layer_4" data-name="Layer 4">
      <g>
        <polygon class="cls-1" points="65.17 29.44 68.32 29.44 68.32 34.69 74.43 34.69 74.43 29.44 77.58 29.44 77.58 43.52 74.43 43.52 74.43 37.44 68.32 37.44 68.32 43.52 65.17 43.52 65.17 29.44"/>
        <rect class="cls-2" x="80.44" y="29.44" width="3.15" height="14.09"/>
        <polygon class="cls-2" points="86.57 29.44 89.72 29.44 89.72 40.66 95.55 40.66 95.55 43.52 86.57 43.52 86.57 29.44"/>
        <polygon class="cls-2" points="97.4 29.44 100.55 29.44 100.55 40.66 106.38 40.66 106.38 43.52 97.4 43.52 97.4 29.44"/>
        <polygon class="cls-2" points="108.24 29.44 117.94 29.44 117.94 32.3 111.38 32.3 111.38 34.93 117.57 34.93 117.57 37.79 111.38 37.79 111.38 40.66 118.3 40.66 118.3 43.52 108.24 43.52 108.24 29.44"/>
        <polygon class="cls-2" points="120.94 29.44 120.94 43.53 129.92 43.53 129.92 40.66 124.09 40.66 124.09 29.44 120.94 29.44"/>
        <path class="cls-1" d="M53.62,51.6a2.34,2.34,0,0,0-1-.7,3.6,3.6,0,0,0-1.24-.23,3.51,3.51,0,0,0-.71.08,2.49,2.49,0,0,0-.69.25,1.42,1.42,0,0,0-.52.45,1.23,1.23,0,0,0,.28,1.65,4.47,4.47,0,0,0,1.22.57q.73.24,1.59.48a6.73,6.73,0,0,1,1.58.68A3.68,3.68,0,0,1,55.31,56a3.57,3.57,0,0,1,.48,2A4.4,4.4,0,0,1,55.35,60a4.15,4.15,0,0,1-1.2,1.45,4.9,4.9,0,0,1-1.76.86,7.56,7.56,0,0,1-2.1.28,7.77,7.77,0,0,1-2.59-.42,6.49,6.49,0,0,1-2.21-1.35l2.24-2.43a3.3,3.3,0,0,0,1.22,1,3.51,3.51,0,0,0,1.52.34,3.44,3.44,0,0,0,.77-.09,2.83,2.83,0,0,0,.71-.26,1.62,1.62,0,0,0,.51-.46,1.22,1.22,0,0,0,.19-.66,1.18,1.18,0,0,0-.5-1,4.36,4.36,0,0,0-1.24-.63c-.5-.17-1-.35-1.61-.52a7.32,7.32,0,0,1-1.62-.69,4,4,0,0,1-1.24-1.16A3.35,3.35,0,0,1,46,52.38a4.2,4.2,0,0,1,.45-2A4.42,4.42,0,0,1,47.61,49a5.22,5.22,0,0,1,1.75-.87,7.34,7.34,0,0,1,2-.29,8.38,8.38,0,0,1,2.34.34,5.46,5.46,0,0,1,2,1.14Z"/>
        <path class="cls-1" d="M67.47,51.82A3.11,3.11,0,0,0,66.33,51a3.81,3.81,0,0,0-1.56-.3,4,4,0,0,0-3,1.28A4.46,4.46,0,0,0,61,53.4,5.31,5.31,0,0,0,61,57a4.52,4.52,0,0,0,.85,1.43,3.89,3.89,0,0,0,1.29.95,3.79,3.79,0,0,0,1.58.33,3.51,3.51,0,0,0,1.71-.4,3.28,3.28,0,0,0,1.23-1.11l2.63,1.93A5.51,5.51,0,0,1,67.94,62a7.21,7.21,0,0,1-2.87.6A8.77,8.77,0,0,1,62,62.09a6.92,6.92,0,0,1-2.44-1.48,6.57,6.57,0,0,1-1.61-2.34,8.53,8.53,0,0,1,0-6.13,6.75,6.75,0,0,1,1.61-2.34A7.07,7.07,0,0,1,62,48.32a9,9,0,0,1,3.08-.52,7.85,7.85,0,0,1,1.26.11,7.24,7.24,0,0,1,1.29.35,5.48,5.48,0,0,1,1.22.64,4.81,4.81,0,0,1,1,1Z"/>
        <polygon class="cls-2" points="71.95 48.16 75.1 48.16 75.1 53.42 81.21 53.42 81.21 48.16 84.35 48.16 84.35 62.25 81.21 62.25 81.21 56.16 75.1 56.16 75.1 62.25 71.95 62.25 71.95 48.16"/>
        <path class="cls-2" d="M86.49,55.21a7.78,7.78,0,0,1,.58-3.07,6.73,6.73,0,0,1,1.6-2.34,7.26,7.26,0,0,1,2.44-1.48,9.41,9.41,0,0,1,6.17,0,7.16,7.16,0,0,1,2.44,1.48,6.89,6.89,0,0,1,1.61,2.34,8.53,8.53,0,0,1,0,6.13,6.7,6.7,0,0,1-1.61,2.34,7,7,0,0,1-2.44,1.48,9.41,9.41,0,0,1-6.17,0,7.1,7.1,0,0,1-2.44-1.48,6.55,6.55,0,0,1-1.6-2.34,7.73,7.73,0,0,1-.58-3.06m3.27,0A5.08,5.08,0,0,0,90.07,57a4.07,4.07,0,0,0,2.3,2.37,4.7,4.7,0,0,0,1.83.34A4.61,4.61,0,0,0,96,59.4a4,4,0,0,0,1.4-.94,4.14,4.14,0,0,0,.9-1.43,5.47,5.47,0,0,0,0-3.63,4.23,4.23,0,0,0-.9-1.45A4,4,0,0,0,96,51a4.61,4.61,0,0,0-1.82-.34,4.7,4.7,0,0,0-1.83.34A4.11,4.11,0,0,0,91,52a4.23,4.23,0,0,0-.9,1.45,5.06,5.06,0,0,0-.31,1.81"/>
        <path class="cls-2" d="M103.27,55.21a8,8,0,0,1,.58-3.07,6.86,6.86,0,0,1,1.6-2.34,7.26,7.26,0,0,1,2.44-1.48,9.44,9.44,0,0,1,6.18,0,7.26,7.26,0,0,1,2.44,1.48,6.86,6.86,0,0,1,1.6,2.34,8.53,8.53,0,0,1,0,6.13,6.68,6.68,0,0,1-1.6,2.34,7.1,7.1,0,0,1-2.44,1.48,9.44,9.44,0,0,1-6.18,0,7.1,7.1,0,0,1-2.44-1.48,6.68,6.68,0,0,1-1.6-2.34,7.91,7.91,0,0,1-.58-3.06m3.27,0a5.3,5.3,0,0,0,.31,1.82,4.07,4.07,0,0,0,2.3,2.37,4.7,4.7,0,0,0,1.83.34,4.61,4.61,0,0,0,1.82-.34,4.06,4.06,0,0,0,1.41-.94A4,4,0,0,0,115.1,57a5.31,5.31,0,0,0,0-3.63A4,4,0,0,0,112.8,51a4.61,4.61,0,0,0-1.82-.34,4.7,4.7,0,0,0-1.83.34,4.11,4.11,0,0,0-1.4.94,4.23,4.23,0,0,0-.9,1.45,5.29,5.29,0,0,0-.31,1.81"/>
        <polygon class="cls-2" points="120.94 48.16 120.94 62.25 129.92 62.25 129.92 59.39 124.09 59.39 124.09 48.16 120.94 48.16"/>
        <polygon class="cls-1" points="49.34 10.77 59.04 10.77 59.04 13.64 52.49 13.64 52.49 16.26 58.68 16.26 58.68 19.13 52.49 19.13 52.49 21.99 59.4 21.99 59.4 24.86 49.34 24.86 49.34 10.77"/>
        <path class="cls-1" d="M61.92,10.77h5.31a10.85,10.85,0,0,1,2.1.2,4.64,4.64,0,0,1,1.72.69A3.46,3.46,0,0,1,72.22,13a4.42,4.42,0,0,1,.44,2.08,4.74,4.74,0,0,1-.41,2.07,3.38,3.38,0,0,1-1.11,1.33,4.51,4.51,0,0,1-1.67.71,10,10,0,0,1-2.1.21h-2.3v5.49H61.92Zm3.15,6h2.1a4.47,4.47,0,0,0,.82-.08,2,2,0,0,0,.7-.27,1.41,1.41,0,0,0,.51-.52,1.66,1.66,0,0,0,.19-.82,1.45,1.45,0,0,0-.25-.87,1.6,1.6,0,0,0-.65-.5,2.65,2.65,0,0,0-.88-.23,7.39,7.39,0,0,0-.92,0H65.07Z"/>
        <path class="cls-2" d="M81.69,14.21a2.16,2.16,0,0,0-1-.7,3.56,3.56,0,0,0-1.24-.23,2.84,2.84,0,0,0-.7.08,2.69,2.69,0,0,0-.69.24,1.63,1.63,0,0,0-.52.45,1.23,1.23,0,0,0,.28,1.65,4.47,4.47,0,0,0,1.22.58c.49.16,1,.32,1.58.48a6.25,6.25,0,0,1,1.59.68,3.78,3.78,0,0,1,1.22,1.17,3.57,3.57,0,0,1,.48,2,4.55,4.55,0,0,1-.44,2.05,4.25,4.25,0,0,1-1.2,1.45,5.16,5.16,0,0,1-1.76.86,8,8,0,0,1-2.11.28,7.76,7.76,0,0,1-2.58-.42,6.63,6.63,0,0,1-2.22-1.35L75.8,21A3.33,3.33,0,0,0,77,22a3.46,3.46,0,0,0,2.3.26A2.62,2.62,0,0,0,80,22a1.56,1.56,0,0,0,.5-.45,1.14,1.14,0,0,0,.19-.66,1.2,1.2,0,0,0-.49-1A4.63,4.63,0,0,0,79,19.25c-.5-.18-1-.35-1.61-.52a6.9,6.9,0,0,1-1.62-.7,3.79,3.79,0,0,1-1.24-1.15A3.27,3.27,0,0,1,74,15a4.2,4.2,0,0,1,.45-2,4.3,4.3,0,0,1,1.21-1.43,5.22,5.22,0,0,1,1.75-.87,7.27,7.27,0,0,1,2-.29,8.28,8.28,0,0,1,2.34.34,5.4,5.4,0,0,1,2,1.13Z"/>
        <polygon class="cls-2" points="88.97 13.52 84.9 13.52 84.9 10.77 96.19 10.77 96.19 13.52 92.12 13.52 92.12 24.86 88.97 24.86 88.97 13.52"/>
        <polygon class="cls-2" points="97.91 10.77 107.61 10.77 107.61 13.64 101.06 13.64 101.06 16.26 107.25 16.26 107.25 19.13 101.06 19.13 101.06 21.99 107.97 21.99 107.97 24.86 97.91 24.86 97.91 10.77"/>
        <rect class="cls-2" x="110.45" y="10.77" width="3.15" height="14.09"/>
        <polygon class="cls-2" points="126.85 10.77 126.85 20.56 126.81 20.56 120.74 10.77 116.46 10.77 116.46 24.86 119.61 24.86 119.61 14.83 119.65 14.83 125.88 24.86 130 24.86 130 10.77 126.85 10.77"/>
        <path class="cls-2" d="M12.52,22.83c.47,2.53-.86,4.89-3,5.28S5.37,26.78,4.9,24.25s.85-4.89,3-5.28,4.19,1.34,4.66,3.86"/>
        <path class="cls-2" d="M19.13,15,19,14.85,14.21,29.44,0,32.08,12.75,41.8l-9.35,17,15.39-4.67,9.62,9.48C25.54,44.17,22.55,31.35,19.13,15"/>
        <path class="cls-3" d="M26.88,7.06c.62,3.35,3.38,5.64,6.17,5.12s4.54-3.65,3.91-7S33.58-.44,30.8.07s-4.54,3.65-3.92,7"/>
        <path class="cls-3" d="M45.41,8.69,29.84,16.17,18.58,2.35c4,19.25,8.28,37.75,11.1,57.23l10.18-13,15.75-5L39.77,28.87Z"/>
      </g>
    </g>
  </g>
</svg>
